<?xml version="1.0" encoding="UTF-8"?>
<svg xmlns="http://www.w3.org/2000/svg" xmlns:xlink="http://www.w3.org/1999/xlink" width="3675" height="2163" viewBox="0 0 3675 2163">
<path fill-rule="nonzero" fill="rgb(0%, 0%, 0%)" fill-opacity="1" d="M 3672 2.269531 L 3673.140625 2.269531 L 3672 2.269531 L 3672 2160 L 3673.140625 2160 L 3672 2160 L 3672 2162.269531 L 3674.269531 2162.269531 L 3674.269531 2.269531 Z M 3672 2.269531 "/>
<path fill-rule="nonzero" fill="rgb(0%, 0%, 0%)" fill-opacity="1" d="M 3672 2160 L 2.269531 2160 L 0 2160.003906 L 0 2162.269531 L 0.992188 2162.269531 L 2.269531 2162.273438 L 3672 2162.269531 L 3674.269531 2162.269531 L 3674.269531 2160 Z M 3672 2160 "/>
<path fill-rule="nonzero" fill="rgb(0%, 0%, 0%)" fill-opacity="1" d="M 0 2.269531 L 1.136719 2.269531 L 0 2.269531 L 0 2160 L 1.136719 2160 L 0 2160 L 0 2162.269531 L 2.269531 2162.269531 L 2.269531 2.269531 Z M 0 2.269531 "/>
<path fill-rule="nonzero" fill="rgb(0%, 0%, 0%)" fill-opacity="1" d="M 72 2.269531 L 73.136719 2.269531 L 72 2.269531 L 72 2160 L 73.136719 2160 L 72 2160 L 72 2162.269531 L 74.269531 2162.269531 L 74.269531 2.269531 Z M 72 2.269531 "/>
<path fill-rule="nonzero" fill="rgb(0%, 0%, 0%)" fill-opacity="1" d="M 216 2.269531 L 217.136719 2.269531 L 216 2.269531 L 216 2160 L 217.136719 2160 L 216 2160 L 216 2162.269531 L 218.269531 2162.269531 L 218.269531 2.269531 Z M 216 2.269531 "/>
<path fill-rule="nonzero" fill="rgb(0%, 0%, 0%)" fill-opacity="1" d="M 144 2.269531 L 145.136719 2.269531 L 144 2.269531 L 144 2160 L 145.136719 2160 L 144 2160 L 144 2162.269531 L 146.269531 2162.269531 L 146.269531 2.269531 Z M 144 2.269531 "/>
<path fill-rule="nonzero" fill="rgb(0%, 0%, 0%)" fill-opacity="1" d="M 288 2.269531 L 289.136719 2.269531 L 288 2.269531 L 288 2160 L 289.136719 2160 L 288 2160 L 288 2162.269531 L 290.269531 2162.269531 L 290.269531 2.269531 Z M 288 2.269531 "/>
<path fill-rule="nonzero" fill="rgb(0%, 0%, 0%)" fill-opacity="1" d="M 360 2.269531 L 361.136719 2.269531 L 360 2.269531 L 360 2160 L 361.136719 2160 L 360 2160 L 360 2162.269531 L 362.269531 2162.269531 L 362.269531 2.269531 Z M 360 2.269531 "/>
<path fill-rule="nonzero" fill="rgb(0%, 0%, 0%)" fill-opacity="1" d="M 432 2.269531 L 433.136719 2.269531 L 432 2.269531 L 432 2160 L 433.136719 2160 L 432 2160 L 432 2162.269531 L 434.269531 2162.269531 L 434.269531 2.269531 Z M 432 2.269531 "/>
<path fill-rule="nonzero" fill="rgb(0%, 0%, 0%)" fill-opacity="1" d="M 504 2.269531 L 505.136719 2.269531 L 504 2.269531 L 504 2160 L 505.136719 2160 L 504 2160 L 504 2162.269531 L 506.269531 2162.269531 L 506.269531 2.269531 Z M 504 2.269531 "/>
<path fill-rule="nonzero" fill="rgb(0%, 0%, 0%)" fill-opacity="1" d="M 576 2.269531 L 577.136719 2.269531 L 576 2.269531 L 576 2160 L 577.136719 2160 L 576 2160 L 576 2162.269531 L 578.269531 2162.269531 L 578.269531 2.269531 Z M 576 2.269531 "/>
<path fill-rule="nonzero" fill="rgb(0%, 0%, 0%)" fill-opacity="1" d="M 648 2.269531 L 649.136719 2.269531 L 648 2.269531 L 648 2160 L 649.136719 2160 L 648 2160 L 648 2162.269531 L 650.269531 2162.269531 L 650.269531 2.269531 Z M 648 2.269531 "/>
<path fill-rule="nonzero" fill="rgb(0%, 0%, 0%)" fill-opacity="1" d="M 720 2.269531 L 721.136719 2.269531 L 720 2.269531 L 720 2160 L 721.136719 2160 L 720 2160 L 720 2162.269531 L 722.269531 2162.269531 L 722.269531 2.269531 Z M 720 2.269531 "/>
<path fill-rule="nonzero" fill="rgb(0%, 0%, 0%)" fill-opacity="1" d="M 3672 0 L 0 0 L 0 2.269531 L 3674.269531 2.269531 L 3674.269531 0 Z M 3672 0 "/>
<path fill-rule="nonzero" fill="rgb(0%, 0%, 0%)" fill-opacity="1" d="M 3672 72 L 0 72 L 0 74.269531 L 3674.269531 74.269531 L 3674.269531 72 Z M 3672 72 "/>
<path fill-rule="nonzero" fill="rgb(0%, 0%, 0%)" fill-opacity="1" d="M 3672 144 L 0 144 L 0 146.269531 L 3674.269531 146.269531 L 3674.269531 144 Z M 3672 144 "/>
<path fill-rule="nonzero" fill="rgb(0%, 0%, 0%)" fill-opacity="1" d="M 3672 216 L 0 216 L 0 218.269531 L 3674.269531 218.269531 L 3674.269531 216 Z M 3672 216 "/>
<path fill-rule="nonzero" fill="rgb(0%, 0%, 0%)" fill-opacity="1" d="M 3672 288 L 0 288 L 0 290.269531 L 3674.269531 290.269531 L 3674.269531 288 Z M 3672 288 "/>
<path fill-rule="nonzero" fill="rgb(0%, 0%, 0%)" fill-opacity="1" d="M 3672 360 L 0 360 L 0 362.269531 L 3674.269531 362.269531 L 3674.269531 360 Z M 3672 360 "/>
<path fill-rule="nonzero" fill="rgb(0%, 0%, 0%)" fill-opacity="1" d="M 3672 432 L 0 432 L 0 434.269531 L 3674.269531 434.269531 L 3674.269531 432 Z M 3672 432 "/>
<path fill-rule="nonzero" fill="rgb(0%, 0%, 0%)" fill-opacity="1" d="M 3672 504 L 0 504 L 0 506.269531 L 3674.269531 506.269531 L 3674.269531 504 Z M 3672 504 "/>
<path fill-rule="nonzero" fill="rgb(0%, 0%, 0%)" fill-opacity="1" d="M 3672 576 L 0 576 L 0 578.269531 L 3674.269531 578.269531 L 3674.269531 576 Z M 3672 576 "/>
<path fill-rule="nonzero" fill="rgb(0%, 0%, 0%)" fill-opacity="1" d="M 792 2.269531 L 793.136719 2.269531 L 792 2.269531 L 792 2160 L 793.136719 2160 L 792 2160 L 792 2162.269531 L 794.269531 2162.269531 L 794.269531 2.269531 Z M 792 2.269531 "/>
<path fill-rule="nonzero" fill="rgb(0%, 0%, 0%)" fill-opacity="1" d="M 864 2.269531 L 865.136719 2.269531 L 864 2.269531 L 864 2160 L 865.136719 2160 L 864 2160 L 864 2162.269531 L 866.269531 2162.269531 L 866.269531 2.269531 Z M 864 2.269531 "/>
<path fill-rule="nonzero" fill="rgb(0%, 0%, 0%)" fill-opacity="1" d="M 1008 2.269531 L 1009.140625 2.269531 L 1008 2.269531 L 1008 2160 L 1009.140625 2160 L 1008 2160 L 1008 2162.269531 L 1010.269531 2162.269531 L 1010.269531 2.269531 Z M 1008 2.269531 "/>
<path fill-rule="nonzero" fill="rgb(0%, 0%, 0%)" fill-opacity="1" d="M 936 2.269531 L 937.136719 2.269531 L 936 2.269531 L 936 2160 L 937.136719 2160 L 936 2160 L 936 2162.269531 L 938.269531 2162.269531 L 938.269531 2.269531 Z M 936 2.269531 "/>
<path fill-rule="nonzero" fill="rgb(0%, 0%, 0%)" fill-opacity="1" d="M 1080 2.269531 L 1081.140625 2.269531 L 1080 2.269531 L 1080 2160 L 1081.140625 2160 L 1080 2160 L 1080 2162.269531 L 1082.269531 2162.269531 L 1082.269531 2.269531 Z M 1080 2.269531 "/>
<path fill-rule="nonzero" fill="rgb(0%, 0%, 0%)" fill-opacity="1" d="M 1152 2.269531 L 1153.140625 2.269531 L 1152 2.269531 L 1152 2160 L 1153.140625 2160 L 1152 2160 L 1152 2162.269531 L 1154.269531 2162.269531 L 1154.269531 2.269531 Z M 1152 2.269531 "/>
<path fill-rule="nonzero" fill="rgb(0%, 0%, 0%)" fill-opacity="1" d="M 1224 2.269531 L 1225.140625 2.269531 L 1224 2.269531 L 1224 2160 L 1225.140625 2160 L 1224 2160 L 1224 2162.269531 L 1226.269531 2162.269531 L 1226.269531 2.269531 Z M 1224 2.269531 "/>
<path fill-rule="nonzero" fill="rgb(0%, 0%, 0%)" fill-opacity="1" d="M 1296 2.269531 L 1297.140625 2.269531 L 1296 2.269531 L 1296 2160 L 1297.140625 2160 L 1296 2160 L 1296 2162.269531 L 1298.269531 2162.269531 L 1298.269531 2.269531 Z M 1296 2.269531 "/>
<path fill-rule="nonzero" fill="rgb(0%, 0%, 0%)" fill-opacity="1" d="M 1368 2.269531 L 1369.140625 2.269531 L 1368 2.269531 L 1368 2160 L 1369.140625 2160 L 1368 2160 L 1368 2162.269531 L 1370.269531 2162.269531 L 1370.269531 2.269531 Z M 1368 2.269531 "/>
<path fill-rule="nonzero" fill="rgb(0%, 0%, 0%)" fill-opacity="1" d="M 1440 2.269531 L 1441.140625 2.269531 L 1440 2.269531 L 1440 2160 L 1441.140625 2160 L 1440 2160 L 1440 2162.269531 L 1442.269531 2162.269531 L 1442.269531 2.269531 Z M 1440 2.269531 "/>
<path fill-rule="nonzero" fill="rgb(0%, 0%, 0%)" fill-opacity="1" d="M 1512 2.269531 L 1513.140625 2.269531 L 1512 2.269531 L 1512 2160 L 1513.140625 2160 L 1512 2160 L 1512 2162.269531 L 1514.269531 2162.269531 L 1514.269531 2.269531 Z M 1512 2.269531 "/>
<path fill-rule="nonzero" fill="rgb(0%, 0%, 0%)" fill-opacity="1" d="M 1584 2.269531 L 1585.140625 2.269531 L 1584 2.269531 L 1584 2160 L 1585.140625 2160 L 1584 2160 L 1584 2162.269531 L 1586.269531 2162.269531 L 1586.269531 2.269531 Z M 1584 2.269531 "/>
<path fill-rule="nonzero" fill="rgb(0%, 0%, 0%)" fill-opacity="1" d="M 1656 2.269531 L 1657.140625 2.269531 L 1656 2.269531 L 1656 2160 L 1657.140625 2160 L 1656 2160 L 1656 2162.269531 L 1658.269531 2162.269531 L 1658.269531 2.269531 Z M 1656 2.269531 "/>
<path fill-rule="nonzero" fill="rgb(0%, 0%, 0%)" fill-opacity="1" d="M 1800 2.269531 L 1801.140625 2.269531 L 1800 2.269531 L 1800 2160 L 1801.140625 2160 L 1800 2160 L 1800 2162.269531 L 1802.269531 2162.269531 L 1802.269531 2.269531 Z M 1800 2.269531 "/>
<path fill-rule="nonzero" fill="rgb(0%, 0%, 0%)" fill-opacity="1" d="M 1728 2.269531 L 1729.140625 2.269531 L 1728 2.269531 L 1728 2160 L 1729.140625 2160 L 1728 2160 L 1728 2162.269531 L 1730.269531 2162.269531 L 1730.269531 2.269531 Z M 1728 2.269531 "/>
<path fill-rule="nonzero" fill="rgb(0%, 0%, 0%)" fill-opacity="1" d="M 1872 2.269531 L 1873.140625 2.269531 L 1872 2.269531 L 1872 2160 L 1873.140625 2160 L 1872 2160 L 1872 2162.269531 L 1874.269531 2162.269531 L 1874.269531 2.269531 Z M 1872 2.269531 "/>
<path fill-rule="nonzero" fill="rgb(0%, 0%, 0%)" fill-opacity="1" d="M 1944 2.269531 L 1945.140625 2.269531 L 1944 2.269531 L 1944 2160 L 1945.140625 2160 L 1944 2160 L 1944 2162.269531 L 1946.269531 2162.269531 L 1946.269531 2.269531 Z M 1944 2.269531 "/>
<path fill-rule="nonzero" fill="rgb(0%, 0%, 0%)" fill-opacity="1" d="M 2016 2.269531 L 2017.140625 2.269531 L 2016 2.269531 L 2016 2160 L 2017.140625 2160 L 2016 2160 L 2016 2162.269531 L 2018.269531 2162.269531 L 2018.269531 2.269531 Z M 2016 2.269531 "/>
<path fill-rule="nonzero" fill="rgb(0%, 0%, 0%)" fill-opacity="1" d="M 2088 2.269531 L 2089.140625 2.269531 L 2088 2.269531 L 2088 2160 L 2089.140625 2160 L 2088 2160 L 2088 2162.269531 L 2090.269531 2162.269531 L 2090.269531 2.269531 Z M 2088 2.269531 "/>
<path fill-rule="nonzero" fill="rgb(0%, 0%, 0%)" fill-opacity="1" d="M 2160 2.269531 L 2161.140625 2.269531 L 2160 2.269531 L 2160 2160 L 2161.140625 2160 L 2160 2160 L 2160 2162.269531 L 2162.269531 2162.269531 L 2162.269531 2.269531 Z M 2160 2.269531 "/>
<path fill-rule="nonzero" fill="rgb(0%, 0%, 0%)" fill-opacity="1" d="M 2232 2.269531 L 2233.140625 2.269531 L 2232 2.269531 L 2232 2160 L 2233.140625 2160 L 2232 2160 L 2232 2162.269531 L 2234.269531 2162.269531 L 2234.269531 2.269531 Z M 2232 2.269531 "/>
<path fill-rule="nonzero" fill="rgb(0%, 0%, 0%)" fill-opacity="1" d="M 2304 2.269531 L 2305.140625 2.269531 L 2304 2.269531 L 2304 2160 L 2305.140625 2160 L 2304 2160 L 2304 2162.269531 L 2306.269531 2162.269531 L 2306.269531 2.269531 Z M 2304 2.269531 "/>
<path fill-rule="nonzero" fill="rgb(0%, 0%, 0%)" fill-opacity="1" d="M 2376 2.269531 L 2377.140625 2.269531 L 2376 2.269531 L 2376 2160 L 2377.140625 2160 L 2376 2160 L 2376 2162.269531 L 2378.269531 2162.269531 L 2378.269531 2.269531 Z M 2376 2.269531 "/>
<path fill-rule="nonzero" fill="rgb(0%, 0%, 0%)" fill-opacity="1" d="M 2448 2.269531 L 2449.140625 2.269531 L 2448 2.269531 L 2448 2160 L 2449.140625 2160 L 2448 2160 L 2448 2162.269531 L 2450.269531 2162.269531 L 2450.269531 2.269531 Z M 2448 2.269531 "/>
<path fill-rule="nonzero" fill="rgb(0%, 0%, 0%)" fill-opacity="1" d="M 2592 2.269531 L 2593.140625 2.269531 L 2592 2.269531 L 2592 2160 L 2593.140625 2160 L 2592 2160 L 2592 2162.269531 L 2594.269531 2162.269531 L 2594.269531 2.269531 Z M 2592 2.269531 "/>
<path fill-rule="nonzero" fill="rgb(0%, 0%, 0%)" fill-opacity="1" d="M 2520 2.269531 L 2521.140625 2.269531 L 2520 2.269531 L 2520 2160 L 2521.140625 2160 L 2520 2160 L 2520 2162.269531 L 2522.269531 2162.269531 L 2522.269531 2.269531 Z M 2520 2.269531 "/>
<path fill-rule="nonzero" fill="rgb(0%, 0%, 0%)" fill-opacity="1" d="M 2664 2.269531 L 2665.140625 2.269531 L 2664 2.269531 L 2664 2160 L 2665.140625 2160 L 2664 2160 L 2664 2162.269531 L 2666.269531 2162.269531 L 2666.269531 2.269531 Z M 2664 2.269531 "/>
<path fill-rule="nonzero" fill="rgb(0%, 0%, 0%)" fill-opacity="1" d="M 2736 2.269531 L 2737.140625 2.269531 L 2736 2.269531 L 2736 2160 L 2737.140625 2160 L 2736 2160 L 2736 2162.269531 L 2738.269531 2162.269531 L 2738.269531 2.269531 Z M 2736 2.269531 "/>
<path fill-rule="nonzero" fill="rgb(0%, 0%, 0%)" fill-opacity="1" d="M 2808 2.269531 L 2809.140625 2.269531 L 2808 2.269531 L 2808 2160 L 2809.140625 2160 L 2808 2160 L 2808 2162.269531 L 2810.269531 2162.269531 L 2810.269531 2.269531 Z M 2808 2.269531 "/>
<path fill-rule="nonzero" fill="rgb(0%, 0%, 0%)" fill-opacity="1" d="M 2880 2.269531 L 2881.140625 2.269531 L 2880 2.269531 L 2880 2160 L 2881.140625 2160 L 2880 2160 L 2880 2162.269531 L 2882.269531 2162.269531 L 2882.269531 2.269531 Z M 2880 2.269531 "/>
<path fill-rule="nonzero" fill="rgb(0%, 0%, 0%)" fill-opacity="1" d="M 2952 2.269531 L 2953.140625 2.269531 L 2952 2.269531 L 2952 2160 L 2953.140625 2160 L 2952 2160 L 2952 2162.269531 L 2954.269531 2162.269531 L 2954.269531 2.269531 Z M 2952 2.269531 "/>
<path fill-rule="nonzero" fill="rgb(0%, 0%, 0%)" fill-opacity="1" d="M 3024 2.269531 L 3025.140625 2.269531 L 3024 2.269531 L 3024 2160 L 3025.140625 2160 L 3024 2160 L 3024 2162.269531 L 3026.269531 2162.269531 L 3026.269531 2.269531 Z M 3024 2.269531 "/>
<path fill-rule="nonzero" fill="rgb(0%, 0%, 0%)" fill-opacity="1" d="M 3096 2.269531 L 3097.140625 2.269531 L 3096 2.269531 L 3096 2160 L 3097.140625 2160 L 3096 2160 L 3096 2162.269531 L 3098.269531 2162.269531 L 3098.269531 2.269531 Z M 3096 2.269531 "/>
<path fill-rule="nonzero" fill="rgb(0%, 0%, 0%)" fill-opacity="1" d="M 3672 648 L 0 648 L 0 650.269531 L 3674.269531 650.269531 L 3674.269531 648 Z M 3672 648 "/>
<path fill-rule="nonzero" fill="rgb(0%, 0%, 0%)" fill-opacity="1" d="M 3672 720 L 0 720 L 0 722.269531 L 3674.269531 722.269531 L 3674.269531 720 Z M 3672 720 "/>
<path fill-rule="nonzero" fill="rgb(0%, 0%, 0%)" fill-opacity="1" d="M 3672 792 L 0 792 L 0 794.269531 L 3674.269531 794.269531 L 3674.269531 792 Z M 3672 792 "/>
<path fill-rule="nonzero" fill="rgb(0%, 0%, 0%)" fill-opacity="1" d="M 3672 864 L 0 864 L 0 866.269531 L 3674.269531 866.269531 L 3674.269531 864 Z M 3672 864 "/>
<path fill-rule="nonzero" fill="rgb(0%, 0%, 0%)" fill-opacity="1" d="M 3672 936 L 0 936 L 0 938.269531 L 3674.269531 938.269531 L 3674.269531 936 Z M 3672 936 "/>
<path fill-rule="nonzero" fill="rgb(0%, 0%, 0%)" fill-opacity="1" d="M 3672 1008 L 0 1008 L 0 1010.269531 L 3674.269531 1010.269531 L 3674.269531 1008 Z M 3672 1008 "/>
<path fill-rule="nonzero" fill="rgb(0%, 0%, 0%)" fill-opacity="1" d="M 3672 1080 L 0 1080 L 0 1082.269531 L 3674.269531 1082.269531 L 3674.269531 1080 Z M 3672 1080 "/>
<path fill-rule="nonzero" fill="rgb(0%, 0%, 0%)" fill-opacity="1" d="M 3672 1152 L 0 1152 L 0 1154.269531 L 3674.269531 1154.269531 L 3674.269531 1152 Z M 3672 1152 "/>
<path fill-rule="nonzero" fill="rgb(0%, 0%, 0%)" fill-opacity="1" d="M 3672 1224 L 2.269531 1224 L 0 1224.003906 L 0 1226.269531 L 0.992188 1226.269531 L 2.269531 1226.273438 L 3672 1226.269531 L 3674.269531 1226.269531 L 3674.269531 1224 Z M 3672 1224 "/>
<path fill-rule="nonzero" fill="rgb(0%, 0%, 0%)" fill-opacity="1" d="M 3672 1296 L 2.269531 1296 L 0 1296.003906 L 0 1298.269531 L 0.992188 1298.269531 L 2.269531 1298.273438 L 3672 1298.269531 L 3674.269531 1298.269531 L 3674.269531 1296 Z M 3672 1296 "/>
<path fill-rule="nonzero" fill="rgb(0%, 0%, 0%)" fill-opacity="1" d="M 3672 1368 L 2.269531 1368 L 0 1368.003906 L 0 1370.269531 L 0.992188 1370.269531 L 2.269531 1370.273438 L 3672 1370.269531 L 3674.269531 1370.269531 L 3674.269531 1368 Z M 3672 1368 "/>
<path fill-rule="nonzero" fill="rgb(0%, 0%, 0%)" fill-opacity="1" d="M 3672 1440 L 2.269531 1440 L 0 1440.003906 L 0 1442.269531 L 0.992188 1442.269531 L 2.269531 1442.273438 L 3672 1442.269531 L 3674.269531 1442.269531 L 3674.269531 1440 Z M 3672 1440 "/>
<path fill-rule="nonzero" fill="rgb(0%, 0%, 0%)" fill-opacity="1" d="M 3672 1512 L 2.269531 1512 L 0 1512.003906 L 0 1514.269531 L 0.992188 1514.269531 L 2.269531 1514.273438 L 3672 1514.269531 L 3674.269531 1514.269531 L 3674.269531 1512 Z M 3672 1512 "/>
<path fill-rule="nonzero" fill="rgb(0%, 0%, 0%)" fill-opacity="1" d="M 3672 1584 L 2.269531 1584 L 0 1584.003906 L 0 1586.269531 L 0.992188 1586.269531 L 2.269531 1586.273438 L 3672 1586.269531 L 3674.269531 1586.269531 L 3674.269531 1584 Z M 3672 1584 "/>
<path fill-rule="nonzero" fill="rgb(0%, 0%, 0%)" fill-opacity="1" d="M 3672 1656 L 2.269531 1656 L 0 1656.003906 L 0 1658.269531 L 0.992188 1658.269531 L 2.269531 1658.273438 L 3672 1658.269531 L 3674.269531 1658.269531 L 3674.269531 1656 Z M 3672 1656 "/>
<path fill-rule="nonzero" fill="rgb(0%, 0%, 0%)" fill-opacity="1" d="M 3672 1728 L 2.269531 1728 L 0 1728.003906 L 0 1730.269531 L 0.992188 1730.269531 L 2.269531 1730.273438 L 3672 1730.269531 L 3674.269531 1730.269531 L 3674.269531 1728 Z M 3672 1728 "/>
<path fill-rule="nonzero" fill="rgb(0%, 0%, 0%)" fill-opacity="1" d="M 3672 1800 L 2.269531 1800 L 0 1800.003906 L 0 1802.269531 L 0.992188 1802.269531 L 2.269531 1802.273438 L 3672 1802.269531 L 3674.269531 1802.269531 L 3674.269531 1800 Z M 3672 1800 "/>
<path fill-rule="nonzero" fill="rgb(0%, 0%, 0%)" fill-opacity="1" d="M 3672 1872 L 2.269531 1872 L 0 1872.003906 L 0 1874.269531 L 0.992188 1874.269531 L 2.269531 1874.273438 L 3672 1874.269531 L 3674.269531 1874.269531 L 3674.269531 1872 Z M 3672 1872 "/>
<path fill-rule="nonzero" fill="rgb(0%, 0%, 0%)" fill-opacity="1" d="M 3672 1944 L 2.269531 1944 L 0 1944.003906 L 0 1946.269531 L 0.992188 1946.269531 L 2.269531 1946.273438 L 3672 1946.269531 L 3674.269531 1946.269531 L 3674.269531 1944 Z M 3672 1944 "/>
<path fill-rule="nonzero" fill="rgb(0%, 0%, 0%)" fill-opacity="1" d="M 3672 2016 L 2.269531 2016 L 0 2016.003906 L 0 2018.269531 L 3674.269531 2018.269531 L 3674.269531 2016 Z M 3672 2016 "/>
<path fill-rule="nonzero" fill="rgb(0%, 0%, 0%)" fill-opacity="1" d="M 3672 2088 L 2.269531 2088 L 0 2088.003906 L 0 2090.269531 L 0.992188 2090.269531 L 2.269531 2090.273438 L 3672 2090.269531 L 3674.269531 2090.269531 L 3674.269531 2088 Z M 3672 2088 "/>
<path fill-rule="nonzero" fill="rgb(0%, 0%, 0%)" fill-opacity="1" d="M 3168 2.269531 L 3169.140625 2.269531 L 3168 2.269531 L 3168 2160 L 3169.140625 2160 L 3168 2160 L 3168 2162.269531 L 3170.269531 2162.269531 L 3170.269531 2.269531 Z M 3168 2.269531 "/>
<path fill-rule="nonzero" fill="rgb(0%, 0%, 0%)" fill-opacity="1" d="M 3240 2.269531 L 3241.140625 2.269531 L 3240 2.269531 L 3240 2160 L 3241.140625 2160 L 3240 2160 L 3240 2162.269531 L 3242.269531 2162.269531 L 3242.269531 2.269531 Z M 3240 2.269531 "/>
<path fill-rule="nonzero" fill="rgb(0%, 0%, 0%)" fill-opacity="1" d="M 3312 2.269531 L 3313.140625 2.269531 L 3312 2.269531 L 3312 2160 L 3313.140625 2160 L 3312 2160 L 3312 2162.269531 L 3314.269531 2162.269531 L 3314.269531 2.269531 Z M 3312 2.269531 "/>
<path fill-rule="nonzero" fill="rgb(0%, 0%, 0%)" fill-opacity="1" d="M 3384 2.269531 L 3385.140625 2.269531 L 3384 2.269531 L 3384 2160 L 3385.140625 2160 L 3384 2160 L 3384 2162.269531 L 3386.269531 2162.269531 L 3386.269531 2.269531 Z M 3384 2.269531 "/>
<path fill-rule="nonzero" fill="rgb(0%, 0%, 0%)" fill-opacity="1" d="M 3456 2.269531 L 3457.140625 2.269531 L 3456 2.269531 L 3456 2160 L 3457.140625 2160 L 3456 2160 L 3456 2162.269531 L 3458.269531 2162.269531 L 3458.269531 2.269531 Z M 3456 2.269531 "/>
<path fill-rule="nonzero" fill="rgb(0%, 0%, 0%)" fill-opacity="1" d="M 3528 2.269531 L 3529.140625 2.269531 L 3528 2.269531 L 3528 2160 L 3529.140625 2160 L 3528 2160 L 3528 2162.269531 L 3530.269531 2162.269531 L 3530.269531 2.269531 Z M 3528 2.269531 "/>
<path fill-rule="nonzero" fill="rgb(0%, 0%, 0%)" fill-opacity="1" d="M 3600 2.269531 L 3601.140625 2.269531 L 3600 2.269531 L 3600 2160 L 3601.140625 2160 L 3600 2160 L 3600 2162.269531 L 3602.269531 2162.269531 L 3602.269531 2.269531 Z M 3600 2.269531 "/>
</svg>
